<svg width="34" height="34" viewBox="0 0 34 34" fill="none" xmlns="http://www.w3.org/2000/svg">
<path d="M19.8334 17H26.9167V14.1667H19.8334V17ZM26.9167 17V26.9167H29.7501V17H26.9167ZM26.9167 26.9167H19.8334V29.75H26.9167V26.9167ZM19.8334 26.9167V17H17.0001V26.9167H19.8334ZM7.08341 7.08332H12.7501V4.24999H7.08341V7.08332ZM12.7501 7.08332V17H15.5834V7.08332H12.7501ZM12.7501 17H7.08341V19.8333H12.7501V17ZM7.08341 17V7.08332H4.25008V17H7.08341ZM7.08341 17H4.25008C4.25008 18.5648 5.51861 19.8333 7.08341 19.8333V17ZM12.7501 17V19.8333C14.3149 19.8333 15.5834 18.5648 15.5834 17H12.7501ZM12.7501 7.08332H15.5834C15.5834 5.51852 14.3149 4.24999 12.7501 4.24999V7.08332ZM7.08341 4.24999C5.51861 4.24999 4.25008 5.51852 4.25008 7.08332H7.08341V4.24999ZM7.08341 24.0833H12.7501V21.25H7.08341V24.0833ZM12.7501 24.0833V26.9167H15.5834V24.0833H12.7501ZM12.7501 26.9167H7.08341V29.75H12.7501V26.9167ZM7.08341 26.9167V24.0833H4.25008V26.9167H7.08341ZM7.08341 26.9167H4.25008C4.25008 28.4815 5.51861 29.75 7.08341 29.75V26.9167ZM12.7501 26.9167V29.75C14.3149 29.75 15.5834 28.4815 15.5834 26.9167H12.7501ZM12.7501 24.0833H15.5834C15.5834 22.5185 14.3149 21.25 12.7501 21.25V24.0833ZM7.08341 21.25C5.51861 21.25 4.25008 22.5185 4.25008 24.0833H7.08341V21.25ZM19.8334 7.08332H26.9167V4.24999H19.8334V7.08332ZM26.9167 7.08332V9.91666H29.7501V7.08332H26.9167ZM26.9167 9.91666H19.8334V12.75H26.9167V9.91666ZM19.8334 9.91666V7.08332H17.0001V9.91666H19.8334ZM19.8334 9.91666H17.0001C17.0001 11.4815 18.2686 12.75 19.8334 12.75V9.91666ZM26.9167 9.91666V12.75C28.4816 12.75 29.7501 11.4815 29.7501 9.91666H26.9167ZM26.9167 7.08332H29.7501C29.7501 5.51852 28.4816 4.24999 26.9167 4.24999V7.08332ZM19.8334 4.24999C18.2686 4.24999 17.0001 5.51852 17.0001 7.08332H19.8334V4.24999ZM19.8334 26.9167H17.0001C17.0001 28.4815 18.2686 29.75 19.8334 29.75V26.9167ZM26.9167 26.9167V29.75C28.4816 29.75 29.7501 28.4815 29.7501 26.9167H26.9167ZM26.9167 17H29.7501C29.7501 15.4352 28.4816 14.1667 26.9167 14.1667V17ZM19.8334 14.1667C18.2686 14.1667 17.0001 15.4352 17.0001 17H19.8334V14.1667Z" fill="black"/>
</svg>
