<svg width="34" height="34" viewBox="0 0 34 34" fill="none" xmlns="http://www.w3.org/2000/svg">
<path d="M24.0403 27.6316L24.8236 28.8121L24.0403 27.6316ZM9.95968 27.6316L9.17642 28.8121L9.95968 27.6316ZM15.5833 24.0833H18.4167V21.25H15.5833V24.0833ZM5.66667 17C5.66667 10.7408 10.7408 5.66667 17 5.66667V2.83333C9.17597 2.83333 2.83333 9.17597 2.83333 17H5.66667ZM17 5.66667C23.2592 5.66667 28.3333 10.7408 28.3333 17H31.1667C31.1667 9.17597 24.824 2.83333 17 2.83333V5.66667ZM19.8333 14.1667C19.8333 15.7315 18.5648 17 17 17V19.8333C20.1296 19.8333 22.6667 17.2963 22.6667 14.1667H19.8333ZM17 17C15.4352 17 14.1667 15.7315 14.1667 14.1667H11.3333C11.3333 17.2963 13.8704 19.8333 17 19.8333V17ZM14.1667 14.1667C14.1667 12.6019 15.4352 11.3333 17 11.3333V8.5C13.8704 8.5 11.3333 11.0371 11.3333 14.1667H14.1667ZM17 11.3333C18.5648 11.3333 19.8333 12.6019 19.8333 14.1667H22.6667C22.6667 11.0371 20.1296 8.5 17 8.5V11.3333ZM18.4167 24.0833C20.5846 24.0833 22.3753 25.7078 22.6343 27.8053L25.4463 27.458C25.0141 23.9584 22.0327 21.25 18.4167 21.25V24.0833ZM28.3333 17C28.3333 20.9445 26.3194 24.4192 23.2571 26.4512L24.8236 28.8121C28.6434 26.2775 31.1667 21.9337 31.1667 17H28.3333ZM23.2571 26.4512C21.4646 27.6405 19.3154 28.3333 17 28.3333V31.1667C19.8897 31.1667 22.5812 30.3 24.8236 28.8121L23.2571 26.4512ZM11.3657 27.8053C11.6247 25.7078 13.4154 24.0833 15.5833 24.0833V21.25C11.9673 21.25 8.9859 23.9584 8.5537 27.458L11.3657 27.8053ZM17 28.3333C14.6846 28.3333 12.5354 27.6405 10.7429 26.4512L9.17642 28.8121C11.4188 30.3 14.1103 31.1667 17 31.1667V28.3333ZM10.7429 26.4512C7.68062 24.4192 5.66667 20.9445 5.66667 17H2.83333C2.83333 21.9337 5.35658 26.2775 9.17642 28.8121L10.7429 26.4512Z" fill="black"/>
</svg>
